<svg width="14" height="14" viewBox="0 0 14 14" fill="none" xmlns="http://www.w3.org/2000/svg">
<path d="M12.5437 8.53749C11.562 8.81277 10.5248 8.82179 9.53848 8.56363C8.55217 8.30546 7.65235 7.78943 6.93143 7.06851C6.21052 6.34759 5.69448 5.44777 5.43632 4.46146C5.17816 3.47516 5.18718 2.43791 5.46245 1.45624C4.49462 1.72562 3.61425 2.24388 2.90904 2.95938C2.20383 3.67489 1.6984 4.56268 1.44307 5.53432C1.18775 6.50595 1.19145 7.52753 1.45381 8.49729C1.71617 9.46706 2.22803 10.3512 2.93841 11.0615C3.64879 11.7719 4.53289 12.2838 5.50265 12.5461C6.47241 12.8085 7.49399 12.8122 8.46563 12.5569C9.43726 12.3015 10.3251 11.7961 11.0406 11.0909C11.7561 10.3857 12.2743 9.50532 12.5437 8.53749Z" stroke="black" stroke-linecap="round" stroke-linejoin="round"/>
</svg>
